<svg xmlns="http://www.w3.org/2000/svg" viewBox="0 0 24 24" width="26" height="26">
  <path fill="#3DAFBD" d="M22,7.42C21.91,9.37 20.55,12.04 17.92,15.44C15.2,19 12.9,20.75 11,20.75C9.85,20.75 8.86,19.67 8.05,17.5C7.5,15.54 7,13.56 6.44,11.58C5.84,9.42 5.2,8.33 4.5,8.33C4.36,8.33 3.84,8.63 2.94,9.21L2,7.96C3,7.12 4,6.27 4.95,5.44C6.33,4.31 7.36,3.71 8.03,3.65C9.61,3.5 10.6,4.54 11,6.71C11.45,9.1 11.75,10.61 11.95,11.23C12.5,13.23 13.1,14.23 13.76,14.23C14.26,14.23 15,13.54 15.95,12.17C16.88,10.81 17.38,9.76 17.44,9.04C17.56,7.9 17.11,7.34 16.06,7.34C15.5,7.34 14.92,7.5 14.33,7.78C15.29,4.45 17.18,2.83 20,3C22.12,3.11 23.06,4.53 22,7.42Z"/>
</svg>
